<svg width="62" height="22" viewBox="0 0 62 22" fill="none" xmlns="http://www.w3.org/2000/svg">
<path fill-rule="evenodd" clip-rule="evenodd" d="M60.5444 17.9598C60.5837 17.949 60.6266 17.9381 60.6659 17.9309C61.4016 17.8043 61.7266 17.8875 61.8445 16.9254C61.9873 15.7752 61.9338 13.9667 61.9909 13.2577C62.0302 12.7694 61.9588 12.3101 61.4409 12.198C61.1516 12.1365 60.8516 12.075 60.8444 11.9484C60.7444 10.2267 60.4909 8.83053 60.1051 7.55735C59.4658 5.43056 58.8158 3.64015 57.6014 1.24208C56.9443 -0.0564201 57.1871 0.0123027 55.5121 0.0123027C49.4832 0.0123027 43.1294 -0.0419522 37.0077 0.0774086C32.9182 0.156982 28.9252 0.185918 27.2215 0.732084C25.0143 1.9691 22.9428 5.00737 21.3927 6.25523C17.4104 6.68204 7.03519 6.98948 3.00287 8.00224C1.58138 8.36032 1.11708 8.40734 0.845636 9.90116C0.684915 10.7837 0.656342 11.7494 0.549195 12.2703C0.438475 12.2775 0.367044 12.2739 0.31347 12.2739C0.102746 12.2703 0.0527442 12.5162 0.045601 12.7622C0.0170283 13.6701 -0.0615465 15.6196 0.0920317 16.73C0.220609 17.6632 0.752775 17.9562 1.55638 17.9562H3.01716C4.16364 17.9562 3.96006 17.8513 4.03863 16.7409C4.26364 13.6158 6.83876 11.149 9.98175 11.149C13.1247 11.149 15.6963 13.6086 15.9249 16.73C16.0142 17.9381 15.7713 17.9598 16.9892 17.9598H46.476C47.8653 17.9598 47.5939 17.8802 47.7474 16.5058C48.0832 13.4928 50.6047 11.149 53.6691 11.149C56.7335 11.149 59.3479 13.576 59.6087 16.6686C59.6658 17.363 59.4801 17.9598 60.1766 17.9598H60.5444ZM9.99247 12.3716C12.6176 12.3716 14.7462 14.5273 14.7462 17.1858C14.7462 19.8443 12.6176 22 9.99247 22C7.36735 22 5.23869 19.8443 5.23869 17.1858C5.23869 14.5273 7.36735 12.3716 9.99247 12.3716ZM53.6727 12.3716C56.2978 12.3716 58.4265 14.5273 58.4265 17.1858C58.4265 19.8443 56.2978 22 53.6727 22C51.0476 22 48.9189 19.8443 48.9189 17.1858C48.9189 14.5273 51.0476 12.3716 53.6727 12.3716ZM26.1036 7.06906C26.1322 6.95693 26.3286 6.59885 26.3572 6.14672C26.4036 5.38354 25.025 5.32566 24.1714 5.38354C25.3965 3.67993 26.4358 2.81185 27.6037 1.84612C28.3787 1.58208 32.8718 1.4374 34.3254 1.40846C34.9504 1.39399 35.5719 1.38314 36.1969 1.36867C36.5362 1.36506 36.5791 1.52421 36.4791 1.79186C36.3112 2.73228 36.0112 4.6529 35.8112 5.96226C35.7148 6.59523 35.5648 6.96416 34.9254 6.95331C32.4003 7.09076 26.0679 7.28607 26.1001 7.06906H26.1036ZM47.2546 6.05268C47.1403 4.93865 46.5724 3.23504 46.2188 2.10292C46.0866 1.67974 45.9366 1.26017 45.4616 1.27102C43.0508 1.33974 40.8936 1.29633 38.5256 1.36506C38.3363 1.36506 38.1042 1.47357 38.0613 1.58569C37.7934 2.28739 37.7327 3.24228 37.3827 6.12502C37.2863 6.91352 37.3398 7.02203 38.2042 7.01118C40.0971 7.01118 43.6901 7.02565 46.2902 6.95331C47.0688 6.93161 47.3546 7.0148 47.2581 6.05268H47.2546ZM50.5583 6.1431C50.1511 5.25694 49.5082 3.7161 48.9046 2.33079C48.5546 1.52782 48.5439 1.27463 49.4582 1.26017C51.269 1.23123 54.7192 1.27463 56.0407 1.29633C56.1585 1.29633 56.505 1.47718 56.5621 1.58931C56.9264 2.29101 57.2836 3.00356 58.3086 5.8863C58.5908 6.6748 58.4515 6.96416 57.8979 6.95331C56.655 6.92799 53.5406 6.95693 51.7012 6.95331C51.1297 6.95331 50.7833 6.6314 50.5583 6.13949V6.1431Z" fill="#61B766"/>
</svg>
