<svg width="43" height="22" viewBox="0 0 43 22" fill="none" xmlns="http://www.w3.org/2000/svg">
<path d="M6.8975 21.499C9.1784 21.499 11.0274 19.6918 11.0274 17.4624C11.0274 15.233 9.1784 13.4258 6.8975 13.4258C4.61661 13.4258 2.76758 15.233 2.76758 17.4624C2.76758 19.6918 4.61661 21.499 6.8975 21.499Z" fill="#61B766"/>
<path d="M36.8002 22C39.2227 22 41.1864 20.0806 41.1864 17.7129C41.1864 15.3452 39.2227 13.4258 36.8002 13.4258C34.3778 13.4258 32.4141 15.3452 32.4141 17.7129C32.4141 20.0806 34.3778 22 36.8002 22Z" fill="#61B766"/>
<path fill-rule="evenodd" clip-rule="evenodd" d="M2.41589 11.8131C2.41589 11.8131 -0.0542085 13.5604 0.000908877 16.6077L0.00210825 16.6065C0.0470409 19.1081 1.88868 18.967 1.88868 18.967C1.88868 18.967 1.13381 16.0907 3.17136 13.8778C5.20891 11.6655 9.73692 12.2552 11.2461 14.6894C12.2238 16.2663 12.3023 19.0413 12.3023 19.0413L31.7935 19.3763C31.7935 19.3763 30.7912 15.0583 33.8849 13.3619C36.9787 11.6655 40.1485 12.6979 41.3557 15.2059C42.1735 16.9046 42.0387 17.9112 42.0387 17.9112L42.9403 17.5663C42.9403 17.5663 43.2423 15.5748 42.4874 14.1735C41.9518 13.1792 41.1293 12.0344 40.1479 11.3704C39.8702 11.1825 39.8586 10.3692 39.844 9.34411C39.8332 8.58023 39.8206 7.69876 39.695 6.87089C39.3937 4.87937 38.2308 3.03132 37.4526 2.22792C36.0944 0.826071 25 -1.34341 18.9427 1.11768C15.4245 2.54717 10.7925 6.4282 10.7925 6.4282C10.7925 6.4282 10.0472 6.77134 7.62328 6.94467C4.62521 7.15913 3.46955 8.61973 2.91993 9.31438C2.90228 9.33669 2.88525 9.35821 2.86881 9.37887C2.3404 10.0429 2.41589 11.8131 2.41589 11.8131ZM17.1426 7.60464C11.6998 8.12872 11.0923 8.18722 11.2021 7.58806C11.2679 7.23164 13.7562 5.5414 15.4739 4.37464C15.9771 4.03281 16.4142 3.73592 16.7049 3.53066C17.9875 2.62478 20.629 1.634 22.5156 1.41266C24.4021 1.19131 28.8289 0.993392 30.2625 1.70778C31.6962 2.42218 33.1556 6.1581 33.1556 6.1581C33.1556 6.1581 27.2527 6.66579 22.5803 7.09208C20.3751 7.29338 18.5883 7.46543 17.1426 7.60464Z" fill="#61B766"/>
<path d="M2.41642 11.8129C2.41642 11.8129 1.89459 10.9047 2.59015 9.6955C3.09939 8.81071 3.55231 8.31239 4.74093 8.25735C5.92955 8.2023 6.83479 9.30844 5.47663 10.1382C4.08132 10.9902 2.41642 11.8129 2.41642 11.8129Z" fill="#61B766"/>
<path d="M35.3579 1.2876C35.3579 1.2876 34.8486 1.34264 34.6785 1.73029C34.509 2.11735 36.4327 2.61508 37.1121 3.94315C37.7914 5.27063 38.2438 6.26668 38.9231 7.26215C39.3323 7.86235 39.8284 8.09189 39.8284 8.09189C39.8284 8.09189 39.6019 5.3813 39.2059 4.60718C38.8099 3.83247 38.3007 2.94768 38.5835 2.78197C38.8662 2.61625 40.0548 2.89264 39.6588 2.44995C39.2628 2.00726 38.0742 1.50953 37.2253 1.39886C36.3764 1.28818 35.3579 1.28818 35.3579 1.28818V1.2876Z" fill="#61B766"/>
</svg>
