<svg width="63" height="22" viewBox="0 0 63 22" fill="none" xmlns="http://www.w3.org/2000/svg">
<path fill-rule="evenodd" clip-rule="evenodd" d="M60.9234 19.0859C61.6427 18.9629 62.2153 18.8004 62.4502 18.5789C63.199 17.8799 62.969 15.7042 62.9592 14.5868C62.9592 14.3161 62.274 14.3112 62.2545 14.0306C62.1566 12.3126 61.4176 9.14751 61.2317 7.38528C61.1632 6.74536 60.9038 5.8987 59.7782 5.19479C58.4618 4.37767 54.6886 2.14288 53.2547 1.53742C52.3102 1.1387 52.5403 1.04026 51.5223 0.897505C46.4817 0.168984 35.4608 -0.687521 30.5181 0.88766C26.4562 2.18718 22.918 4.06756 19.2525 6.36141C12.7633 7.48865 7.46823 8.4436 4.31662 9.29519C2.79464 9.70375 2.14866 10.4372 1.67885 11.3478C1.165 12.3422 0.925206 12.9279 0.690303 13.494C0.132408 13.5433 0.00027555 14.065 0.00516936 14.7689C0.0198508 15.8765 -0.0829193 16.6641 0.225391 17.7569C0.450506 18.5641 1.1699 19.0318 2.02631 19.0564L3.60702 19.1105C4.37534 18.9629 4.61025 19.0072 4.54173 17.9734C4.51727 17.619 4.51237 17.2548 4.51237 16.8807C4.51237 13.2085 7.47313 10.2304 11.1239 10.2304C14.7747 10.2304 17.7355 13.2085 17.7355 16.8807C17.7355 17.3926 17.7355 17.8947 17.7012 18.3722C17.5886 20.0113 17.0797 19.8391 18.6457 19.9178L45.2093 19.8883C46.3447 19.7504 46.6481 19.8883 46.4915 18.3328C46.4426 17.8652 46.4328 17.3729 46.4328 16.8757C46.4328 13.2036 49.3935 10.2255 53.0443 10.2255C56.6951 10.2255 59.6559 13.2036 59.6559 16.8757C59.6559 17.2055 59.6559 17.5304 59.6461 17.8405C59.602 19.1007 59.328 19.3567 60.9331 19.081L60.9234 19.0859ZM39.7576 6.92257C40.1638 3.57039 40.2127 2.60067 40.5259 1.78354C40.5749 1.65064 40.8685 1.37498 41.0936 1.38483C43.4916 1.49804 46.1636 1.45866 48.4882 2.00013C49.3152 2.23149 51.0036 4.166 51.4245 4.74685C51.586 4.97328 52.7996 6.39095 52.6088 6.68137C52.4717 6.88811 52.3005 7.0161 51.9775 7.02594C48.3658 7.149 44.3284 7.53295 40.7217 7.57233C39.7087 7.58218 39.65 7.83322 39.7625 6.91765L39.7576 6.92257ZM26.0354 8.10395C26.0696 7.97105 26.2409 7.47388 26.2752 6.94718C26.329 6.06114 24.391 5.99223 23.3927 6.06114C25.3307 4.60902 28.5312 3.0683 31.1102 2.16749C33.2342 1.45374 36.0921 1.43405 38.3678 1.38483C38.7642 1.38483 38.7495 1.54727 38.7006 1.87707C38.5391 2.93047 38.1524 5.20464 37.9175 6.7306C37.805 7.46896 37.6288 7.64125 36.8801 7.64617C33.9242 7.67078 25.9962 8.24178 26.0354 8.09903V8.10395ZM53.0394 11.7712C55.8485 11.7712 58.1241 14.0601 58.1241 16.8856C58.1241 19.7111 55.8485 22 53.0394 22C50.2304 22 47.9548 19.7111 47.9548 16.8856C47.9548 14.0601 50.2304 11.7712 53.0394 11.7712ZM11.1239 11.7712C13.933 11.7712 16.2086 14.0601 16.2086 16.8856C16.2086 19.7111 13.933 22 11.1239 22C8.31486 22 6.03924 19.7111 6.03924 16.8856C6.03924 14.0601 8.31486 11.7712 11.1239 11.7712Z" fill="#61B766"/>
</svg>
