<svg width="68" height="22" viewBox="0 0 68 22" fill="none" xmlns="http://www.w3.org/2000/svg">
<path fill-rule="evenodd" clip-rule="evenodd" d="M62.9818 19.1154C63.9345 19.0373 64.9612 18.9592 65.7953 18.8372C66.5259 18.7298 67.0984 18.5541 67.3354 18.3345C68.0906 17.6414 68.0017 15.4841 67.9918 14.3761C67.9918 14.1077 67.3008 14.1077 67.2811 13.8246C67.1823 12.1163 67.0589 10.6472 66.8714 8.89495C66.7924 8.16771 66.1853 7.57713 65.2228 7.2794C62.3056 6.38132 58.0113 5.80539 56.6292 5.40516C55.6124 5.11231 55.1533 4.76089 54.6449 4.44851C52.6755 3.24295 50.2322 1.92024 48.86 1.31502C47.5815 0.75372 46.5746 0.0313568 44.8421 0.0313568C40.2467 0.0313568 34.9651 -0.281017 30.6906 1.06609C26.5937 2.35463 22.8621 4.67791 18.9775 6.49358C14.2735 6.98655 9.05121 7.93343 4.28798 9.09995C2.74795 9.47577 2.07666 10.1835 1.6028 11.0913C1.08452 12.0773 0.842661 13.0046 0.605733 13.5659C0.230598 13.5952 0.21579 13.7075 0.0923903 13.9271C-0.0162014 14.1321 -0.00139344 14.9374 0.00354255 15.2498C0.0134145 15.7184 0.0479664 16.4212 0.0923903 16.8751C0.176302 17.8269 0.33919 18.3589 0.827853 18.7201C1.1092 18.9251 1.55344 19.0861 1.94832 19.0959L3.25142 19.1398C4.70754 18.9544 4.57427 19.213 4.47555 17.617C4.46074 17.3827 4.4558 17.1533 4.4558 16.9239C4.4558 13.2828 7.44208 10.3299 11.1243 10.3299C14.8066 10.3299 17.7928 13.2828 17.7928 16.9239C17.7928 17.5389 17.7534 18.1393 17.6448 18.7054C17.3683 20.1306 17.2203 19.8378 18.7011 19.9403L47.1718 19.911C48.6033 19.7353 48.4651 19.9696 48.2923 18.3198C48.243 17.8708 48.2331 17.4071 48.2331 16.9288C48.2331 13.2877 51.2194 10.3348 54.9016 10.3348C58.5839 10.3348 61.5701 13.2877 61.5701 16.9288C61.5701 17.2705 61.58 17.6024 61.58 17.9294C61.5701 19.3351 61.7922 19.2179 63.0016 19.1154H62.9818ZM41.4264 6.85477C41.7817 3.95555 41.9446 2.87688 42.0878 2.06667C42.1519 1.71525 42.2161 1.52489 42.6554 1.51513L43.6673 1.49073C44.4028 1.47608 47.9369 3.7896 49.3486 5.23921C50.1631 6.07871 50.4987 7.25499 48.6921 7.33797L42.3642 7.63082C41.3474 7.67475 41.3128 7.7626 41.4264 6.85477ZM26.1593 8.2214C26.0211 8.22628 26.3667 7.59665 26.4012 7.0744C26.4555 6.19585 24.8266 6.12752 23.8197 6.19585C25.7743 4.75601 28.6767 3.2283 31.273 2.33511C32.1862 2.0325 34.669 1.66156 36.3867 1.60787L39.9949 1.49073C40.3947 1.48585 40.3799 1.65179 40.3306 1.97881C40.1529 3.16485 39.8123 5.30754 39.5408 6.79131C39.4075 7.51856 39.2496 7.66987 38.4944 7.69915L26.1544 8.21652L26.1593 8.2214ZM54.8868 11.8576C57.7201 11.8576 60.0153 14.1272 60.0153 16.9288C60.0153 19.7304 57.7201 22 54.8868 22C52.0535 22 49.7583 19.7304 49.7583 16.9288C49.7583 14.1272 52.0535 11.8576 54.8868 11.8576ZM11.1194 11.8576C13.9526 11.8576 16.2479 14.1272 16.2479 16.9288C16.2479 19.7304 13.9526 22 11.1194 22C8.28613 22 5.9909 19.7304 5.9909 16.9288C5.9909 14.1272 8.28613 11.8576 11.1194 11.8576Z" fill="#61B766"/>
</svg>
