<svg width="68" height="22" viewBox="0 0 68 22" fill="none" xmlns="http://www.w3.org/2000/svg">
<path fill-rule="evenodd" clip-rule="evenodd" d="M54.8181 11.8212C57.627 11.8212 59.9026 14.0989 59.9026 16.9106C59.9026 19.7223 57.627 22 54.8181 22C52.0091 22 49.7335 19.7223 49.7335 16.9106C49.7335 14.0989 52.0091 11.8212 54.8181 11.8212ZM51.9748 6.54566C52.1314 7.40287 52.0629 7.26082 52.9927 7.23143L63.3967 7.0404C64.5272 6.49178 62.692 2.01467 62.6284 1.73057C62.5746 1.48075 62.1929 1.43667 61.5958 1.43667L52.0384 1.44646C51.0891 1.44646 51.1037 1.80894 51.231 2.50451L51.9748 6.54076V6.54566ZM50.3501 6.33013L49.7678 3.04333C49.6356 2.28898 49.6944 1.3387 48.9114 1.35339L41.0227 1.49055C40.4795 1.48565 40.5333 1.43667 40.3816 2.08815C40.2201 2.78372 40.0244 4.24833 39.6867 6.99631C39.5742 7.90741 39.6329 7.66249 40.6459 7.64779L49.3714 7.44206C50.6242 7.41267 50.5654 7.56452 50.3501 6.32523V6.33013ZM62.692 19.1638C63.7246 19.0855 64.8942 18.9875 65.8142 18.8308C66.5336 18.7083 67.1062 18.5467 67.3411 18.3262C68.0898 17.6307 68.0017 15.4656 67.9919 14.3537C67.9919 14.0842 67.3068 14.0842 67.2872 13.8001C67.1991 12.2865 67.0964 10.626 66.9447 9.04873C66.9251 8.84299 66.9055 8.63726 66.881 8.43643L64.2384 0.765591C64.0867 0.324738 63.8861 0.216974 63.4555 0.0700231C63.294 0.0210394 62.7067 0.0406329 61.1652 0.0357345C53.2276 0.0112427 44.4434 -0.091623 36.5058 0.221872C34.2939 0.310043 32.1602 0.471689 30.4523 0.995814C26.3905 2.28898 22.6909 4.6206 18.8395 6.4428C14.1758 6.93753 8.99829 7.88781 4.27586 9.05852C2.74902 9.4357 2.08348 10.146 1.61368 11.0571C1.09985 12.0465 0.860053 12.9772 0.625156 13.5405C0.253234 13.5699 0.238553 13.4768 0.11621 13.6973C-0.00613256 13.9275 0.0623793 14.2312 0.0330171 14.6084C-0.0306011 15.4607 -0.01592 16.5873 0.199403 17.3515C0.404939 18.0862 0.595793 18.4438 0.957928 18.7132C1.23687 18.9189 1.56475 19.0806 1.95135 19.0904L3.68372 19.1492C4.71629 18.9581 4.52055 18.8259 4.45693 17.5131C4.44714 17.3172 4.44225 17.1163 4.44225 16.9155C4.44225 13.2613 7.40294 10.2978 11.0536 10.2978C14.7043 10.2978 17.665 13.2613 17.665 16.9155C17.665 17.2878 17.6553 17.6503 17.6308 18.0078C17.4742 20.2219 17.2687 19.8398 19.2751 19.9427L47.0077 19.9133C48.4856 19.7076 48.3975 19.8937 48.2458 18.0372C48.2165 17.6747 48.2067 17.2976 48.2067 16.9155C48.2067 13.2613 51.1674 10.2978 54.8181 10.2978C58.4688 10.2978 61.4295 13.2613 61.4295 16.9155C61.4295 17.229 61.4197 17.5425 61.3952 17.8511C61.2778 19.3696 61.7035 19.2471 62.692 19.1687V19.1638ZM25.9697 8.17192C26.0039 8.03966 26.1752 7.54493 26.2095 7.0208C26.2633 6.1391 24.6484 6.07052 23.65 6.1391C25.588 4.69408 28.4655 3.16089 31.0395 2.26449C31.9449 1.96079 34.4064 1.56892 36.1094 1.53463L38.3018 1.49055C38.6101 1.49055 38.6982 1.70118 38.6346 1.98039C38.4731 2.67105 38.0865 5.29168 37.8516 6.81017C37.739 7.54493 37.5629 7.71637 36.8141 7.72127C33.8583 7.74576 25.9305 8.31397 25.9697 8.17192ZM11.0585 11.8212C13.8675 11.8212 16.1431 14.0989 16.1431 16.9106C16.1431 19.7223 13.8675 22 11.0585 22C8.24955 22 5.97398 19.7223 5.97398 16.9106C5.97398 14.0989 8.24955 11.8212 11.0585 11.8212Z" fill="#61B766"/>
</svg>
