<svg width="75" height="22" viewBox="0 0 75 22" fill="none" xmlns="http://www.w3.org/2000/svg">
<path fill-rule="evenodd" clip-rule="evenodd" d="M55.5942 2.51575L55.2144 6.62887C56.3372 6.57893 57.416 6.53807 58.4232 6.51083C58.792 6.50175 58.9846 6.38372 59.1332 6.19304C59.3533 5.92519 59.7001 5.30323 59.8212 5.0036C59.9147 4.7766 59.8927 4.67219 59.6616 4.40888C59.3478 4.05477 57.2454 3.15133 55.5942 2.51575ZM54.3613 6.66519L54.8292 2.22974C54.3283 2.04815 53.921 1.91649 53.7119 1.86655C52.424 1.5533 51.0755 1.35809 49.7656 1.34447L45.3956 1.30361C45.1479 1.30361 44.8452 1.41711 44.7846 1.53968C44.4324 2.2933 44.3498 3.31477 43.893 6.40642C43.7664 7.25083 43.8325 7.02384 44.9718 7.01022C47.7732 6.98298 51.1856 6.80592 54.3613 6.66065V6.66519ZM69.0302 17.6834C70.1915 17.6108 71.507 17.52 72.5417 17.3747C73.3508 17.2612 73.9947 17.1114 74.2589 16.9071C75.101 16.2625 75.0019 14.2558 74.9909 13.2253C74.9909 12.9756 74.2204 12.9756 74.1984 12.7123C74.0883 11.1233 73.9507 9.37095 73.7415 7.74114C73.4883 5.78445 69.3594 5.71182 66.3818 4.9355C64.2628 4.38164 62.5126 3.19673 59.7936 2.2025C56.794 1.10385 54.1742 0.100545 51.0205 0.100545C45.8964 0.100545 38.2791 -0.40338 33.5127 0.845082C28.9445 2.04361 24.7836 4.20458 20.4521 5.89341C15.2069 6.35194 10.1202 7.23267 4.80898 8.3177C3.09178 8.66727 2.34325 9.32555 1.81488 10.17C1.23698 11.087 0.967286 11.9496 0.703101 12.4717C0.284807 12.4989 0.268296 12.4127 0.130699 12.617C-0.00689718 12.8303 0.0701568 13.1118 0.0371337 13.4614C-0.0344165 14.2513 -0.0179048 15.2955 0.224265 16.0037C0.455427 16.6847 0.670078 17.0161 1.07736 17.2658C1.39108 17.4564 1.75984 17.6063 2.19465 17.6153L4.13751 17.6698C5.29882 17.4928 5.07867 17.3702 5.00712 16.1535C4.99611 15.9719 4.99061 15.7858 4.99061 15.5996C5.52304 12.1 7.58404 9.46628 11.6899 9.46628C15.7958 9.46628 19.1256 12.2129 19.1256 15.5996C19.1256 15.9447 19.1146 16.2806 19.0871 16.612C18.911 18.664 18.6798 18.3099 20.9364 18.4053L52.1268 18.378C53.7889 18.1874 53.6899 18.3599 53.5192 16.6393C53.4862 16.3033 53.4752 15.9538 53.4752 15.5996C53.7575 11.7333 56.805 9.46628 60.9109 9.46628C65.0168 9.46628 67.6102 12.2129 67.6102 15.5996C67.6102 15.8902 67.5992 16.1807 67.5717 16.4668C67.4396 17.8741 67.9184 17.7606 69.0302 17.688V17.6834ZM28.4657 7.50052C28.5042 7.37795 28.6968 6.91942 28.7354 6.43366C28.7959 5.61648 26.9796 5.55292 25.8569 5.61648C28.0364 4.27722 31.2726 2.85624 34.1677 2.02545C35.1859 1.74398 37.9543 1.38079 39.8697 1.34901L42.3354 1.30815C42.7812 1.30815 42.8418 1.47612 42.7097 1.76214C42.2694 2.73367 42.0932 4.83108 41.8291 6.23844C41.7025 6.91942 41.5043 7.07832 40.6622 7.08286C37.3379 7.10556 28.4216 7.63218 28.4657 7.50052Z" fill="#61B766"/>
<path d="M17.6737 16.5C17.6737 13.4615 15.2019 11 12.1507 11C9.09945 11 6.62764 13.4615 6.62764 16.5C6.62764 19.5385 9.09945 22 12.1507 22C15.2019 22 17.6737 19.5385 17.6737 16.5Z" fill="#61B766"/>
<path d="M66.2764 16.5C66.2764 13.4615 63.8046 11 60.7534 11C57.7022 11 55.2304 13.4615 55.2304 16.5C55.2304 19.5385 57.7022 22 60.7534 22C63.8046 22 66.2764 19.5385 66.2764 16.5Z" fill="#61B766"/>
</svg>
