<svg width="81" height="22" viewBox="0 0 81 22" fill="none" xmlns="http://www.w3.org/2000/svg">
<path fill-rule="evenodd" clip-rule="evenodd" d="M74.9779 17.9621C76.1494 17.8883 77.4764 17.7961 78.5202 17.6486C79.3363 17.5333 79.9859 17.3811 80.2524 17.1736C81.0397 16.5667 81.0115 14.7714 80.9943 13.6786V13.6785V13.6783V13.6782C80.9929 13.592 80.9916 13.5102 80.9908 13.4337C80.9908 13.3077 80.799 13.2443 80.6031 13.1796C80.4048 13.1141 80.2025 13.0472 80.1913 12.9126C80.0803 11.2986 79.9415 9.51863 79.7305 7.86313C79.5459 6.4269 76.9318 5.99 74.3624 5.56057C73.3762 5.39574 72.3965 5.23201 71.5634 5.01328C69.4258 4.45069 65.7317 3.24711 62.989 2.23721L62.6694 2.11925C59.7755 1.05046 57.2078 0.102129 54.139 0.102129C53.0434 0.102129 51.8349 0.0791355 50.5647 0.0549688C45.8419 -0.0348873 40.2668 -0.14096 36.4778 0.858401C33.3631 1.68124 30.4361 2.9507 27.5168 4.21681L27.5168 4.21683C26.1169 4.82395 24.7189 5.43031 23.3027 5.98629C18.0116 6.45204 10.2089 7.34666 4.85112 8.44878C3.11887 8.80386 2.36378 9.47252 1.83078 10.3302C1.43748 10.9587 1.1857 11.5619 0.981658 12.0508C0.88326 12.2865 0.795967 12.4957 0.709261 12.6682C0.585513 12.6763 0.496625 12.6745 0.429291 12.6732C0.267028 12.6699 0.22994 12.6691 0.131845 12.8158C0.0405059 12.9584 0.0429316 13.131 0.0457782 13.3335C0.0472574 13.4388 0.0488503 13.5521 0.0374591 13.6735C-0.034718 14.4759 -0.0180618 15.5365 0.22623 16.2559C0.459417 16.9476 0.675949 17.2843 1.0868 17.5379C1.40327 17.7316 1.77526 17.8837 2.21388 17.893L4.17376 17.9483C5.16847 17.7956 5.15846 17.6828 5.0886 16.8957C5.07619 16.7558 5.06188 16.5946 5.05099 16.4081C5.03989 16.2236 5.03433 16.0346 5.03433 15.8455C5.03433 12.4054 8.39334 9.61547 12.5352 9.61547C16.6771 9.61547 20.0361 12.4054 20.0361 15.8455C20.0361 16.196 20.025 16.5372 19.9972 16.8738C19.9785 17.0935 19.9591 17.286 19.9422 17.4548C19.8818 18.0557 19.8517 18.3555 19.9873 18.5075C20.1223 18.6589 20.4218 18.6636 21.0196 18.6731H21.0196H21.0196C21.2527 18.6768 21.5311 18.6812 21.8627 18.6953L57.1835 18.6677C57.3265 18.6512 57.4565 18.6373 57.5747 18.6248C58.1472 18.5639 58.4414 18.5326 58.5775 18.3694C58.7213 18.1969 58.6883 17.8769 58.6204 17.2187L58.6204 17.2186C58.6102 17.1206 58.5994 17.0151 58.5882 16.9015C58.5549 16.5603 58.5438 16.2052 58.5438 15.8455C58.5438 12.4054 61.9028 9.61547 66.0446 9.61547C70.1865 9.61547 73.5455 12.4054 73.5455 15.8455C73.5455 16.1406 73.5344 16.4358 73.5066 16.7263C73.3806 18.0782 73.8058 18.0485 74.801 17.9789L74.9338 17.9697L74.9779 17.9667V17.9621ZM31.3865 7.61873C30.792 7.61873 30.1759 7.65068 29.5946 7.68082C28.2948 7.74823 27.1684 7.80664 26.843 7.47887C26.5675 7.20139 27.1364 6.7064 28.7548 5.70499C30.9535 4.34463 34.2181 2.90126 37.1385 2.05737C38.1656 1.77146 40.9583 1.40255 42.8904 1.37027L45.3778 1.32876C45.8275 1.32876 45.8886 1.49939 45.7553 1.78991C45.447 2.47482 45.2671 3.71062 45.0968 4.88062C45.0217 5.3964 44.9485 5.89938 44.867 6.33676C44.7393 7.02847 44.5394 7.18987 43.6899 7.19448C41.4194 7.21009 36.8752 7.39905 33.9795 7.51946L33.9794 7.51947L33.9792 7.51947C32.5982 7.5769 31.5921 7.61873 31.3865 7.61873ZM18.2813 16.5C18.2813 13.4615 15.8267 11 12.7969 11C9.76701 11 7.3125 13.4615 7.3125 16.5C7.3125 19.5385 9.76701 22 12.7969 22C15.8267 22 18.2813 19.5385 18.2813 16.5ZM66.1781 11C69.208 11 71.6625 13.4615 71.6625 16.5C71.6625 19.5385 69.208 22 66.1781 22C63.1483 22 60.6938 19.5385 60.6938 16.5C60.6938 13.4615 63.1483 11 66.1781 11ZM58.3702 6.73243C59.5029 6.6817 60.5911 6.6402 61.6071 6.61253C61.9791 6.60331 62.1734 6.48341 62.3233 6.28973C62.5454 6.01766 62.8952 5.3859 63.0173 5.08154C63.1117 4.85097 63.0895 4.74491 62.8563 4.47745C62.5399 4.11776 60.419 3.20009 58.7533 2.55449L57.9816 2.26397C57.4764 2.07951 57.0655 1.94578 56.8545 1.89506C55.5553 1.57687 54.1951 1.37858 52.8737 1.36474L48.4653 1.32324C48.2155 1.32324 47.9101 1.43853 47.849 1.56304C47.5664 2.17183 47.4559 2.95272 47.1907 4.8266C47.1224 5.30891 47.0439 5.86364 46.9496 6.50647C46.8488 7.18378 46.8691 7.18247 47.448 7.14514C47.6022 7.1352 47.7961 7.1227 48.0378 7.11979C50.4514 7.09616 53.3145 6.96153 56.0944 6.83081C56.5695 6.80847 57.0421 6.78625 57.5097 6.76471L58.3702 6.73243Z" fill="#61B766"/>
</svg>
