<svg width="78" height="22" viewBox="0 0 78 22" fill="none" xmlns="http://www.w3.org/2000/svg">
<path fill-rule="evenodd" clip-rule="evenodd" d="M16.1342 9.2294C19.6382 9.2294 22.4768 12.0871 22.4768 15.6147C22.4768 19.1423 19.6382 22 16.1342 22C12.6302 22 9.79165 19.1423 9.79165 15.6147C9.79165 12.0871 12.6302 9.2294 16.1342 9.2294ZM73.7996 20.1625C76.0704 19.8613 77.1286 18.3864 77.8551 16.4013C78.3923 14.9325 77.3179 13.8878 76.5609 12.5665C76.3595 12.21 76.2496 11.8597 76.1886 11.4971C75.7124 8.57797 80.2603 7.03542 75.5903 6.43929C71.0974 5.86775 70.9975 5.34537 66.0101 4.14083C64.8442 3.85813 63.6111 3.4771 62.3535 3.0592C58.465 1.77477 54.2651 0.158468 50.5719 0.0294104C45.1938 -0.154958 39.6815 0.514914 35.0482 2.39547C32.1974 3.55085 28.907 5.06882 24.9147 6.95552C23.877 6.53148 15.5115 5.49287 11.7206 5.86775C7.11172 6.32253 4.57061 8.06173 1.1582 11.4971C-0.00165499 12.6709 -0.375892 14.1152 0.4299 15.6024C1.71184 17.9623 6.25741 20.2774 7.21556 20.31C8.84545 20.3653 8.28995 19.5479 8.13123 17.9377C8.0885 17.4953 7.83821 16.0695 7.83821 15.6024C7.83821 11.0178 11.5314 7.29968 16.0854 7.29968C20.6393 7.29968 24.3325 11.0178 24.3325 15.6024C24.3325 16.0449 24.3264 16.4812 24.2959 16.9053C24.125 19.5479 22.9346 20.3284 25.6145 20.3284L54.7536 20.2915C56.4323 20.2915 56.182 19.2037 55.9806 17.2371C55.9256 16.7086 55.9073 16.1617 55.9073 15.6024C55.9073 11.0178 59.6005 7.39186 64.1545 7.39186C68.7084 7.39186 72.4017 11.0178 72.4017 15.6024C72.4017 16.1186 72.3833 17.4461 72.3345 17.9193C72.1697 19.5049 72.5238 20.3222 73.8057 20.1502L73.7996 20.1625ZM51.0908 6.61137C51.4753 5.06267 51.9149 3.37877 52.7512 2.0083C53.0137 1.57811 53.4898 1.61498 53.8683 1.70102C54.8023 1.90382 56.4444 2.36475 57.3356 2.8441C58.0804 3.24357 58.3612 3.39106 57.7263 4.20843C56.6031 5.64651 53.8012 7.00469 52.1529 7.5455C51.0175 7.92039 50.8038 7.76675 51.0908 6.61137ZM33.6808 7.92653C33.7601 7.64383 33.9066 7.21364 33.931 6.75886C33.9799 5.84931 32.582 6.05826 31.4038 6.2119C30.8422 6.28565 30.9459 6.11357 31.3366 5.86775C32.7773 4.98893 34.5964 4.09781 36.5865 3.3419C39.364 2.291 41.9584 1.73789 44.913 1.47363C46.4697 1.33228 48.0324 1.27083 49.5768 1.22781C50.3216 1.20322 50.8588 1.33843 50.639 1.92841C50.23 2.99774 49.7111 4.50342 49.0824 5.80015C48.6673 6.66668 48.2033 7.91424 47.1839 8.06788C43.9729 8.55953 35.5426 8.8791 33.9066 8.38131C33.5831 8.28298 33.5953 8.21538 33.6808 7.92039V7.92653ZM64.2644 9.2294C67.7683 9.2294 70.6069 12.0871 70.6069 15.6147C70.6069 19.1423 67.7683 22 64.2644 22C60.7604 22 57.9218 19.1423 57.9218 15.6147C57.9218 12.0871 60.7604 9.2294 64.2644 9.2294Z" fill="#61B766"/>
</svg>
