<svg width="187" height="187" viewBox="0 0 187 187" fill="none" xmlns="http://www.w3.org/2000/svg">
    <g clip-path="url(#clip0_391_2652)">
        <path d="M146.782 28.2654L145.763 29.2846L118.565 56.4787L116.792 58.2509L115.02 56.4787L103.398 44.8577L103.398 44.8576C102.238 43.6968 100.356 43.6969 99.1958 44.8575L99.1956 44.8577L91.4473 52.6053C91.4472 52.6053 91.4472 52.6054 91.4472 52.6054C90.2866 53.766 90.2867 55.6474 91.4473 56.808L103.069 68.4297L104.841 70.2022L103.069 71.9747L40.7658 134.279L38.7206 136.324L36.9869 134.009L33.1965 128.947M146.782 28.2654L33.1965 128.947M146.782 28.2654L146.414 26.8716M146.782 28.2654L146.414 26.8716M33.1965 128.947C19.3929 110.515 21.234 84.7387 37.5178 68.4549L39.2903 70.2274M33.1965 128.947L39.2903 70.2274M39.2903 70.2274L37.5178 68.4549L45.2907 60.6824L47.0632 58.91M39.2903 70.2274L47.0632 58.91M146.414 26.8716C144.699 20.3818 146.312 13.2406 151.362 8.19041C158.941 0.611986 171.229 0.612153 178.808 8.19053C186.387 15.7698 186.387 28.0585 178.808 35.6365L178.807 35.6367C173.758 40.6865 166.616 42.299 160.126 40.5846L158.733 40.2165L157.714 41.2355L130.516 68.4296L128.743 70.2021L130.515 71.9747L142.137 83.5964C143.298 84.7571 143.298 86.6382 142.137 87.7991L134.389 95.5467C133.229 96.7075 131.347 96.7071 130.187 95.5471L130.187 95.5468L118.565 83.9251L116.793 82.1526L115.02 83.9251L52.7162 146.229L50.6709 148.274L52.9862 150.008L58.0478 153.798C76.4798 167.602 102.256 165.76 118.539 149.477L126.312 141.704L128.085 139.932L126.312 138.16L118.055 129.902C117.281 129.128 116.995 127.989 117.312 126.939C117.622 125.919 118.453 125.145 119.487 124.906L155.505 120.791L155.609 120.779L155.712 120.758C156.686 120.564 157.693 120.868 158.396 121.571C159.1 122.274 159.404 123.282 159.209 124.254L159.189 124.358L159.177 124.462L155.062 160.481C154.823 161.515 154.048 162.347 153.028 162.655L153.028 162.655C151.979 162.973 150.84 162.687 150.065 161.912L148.293 163.685L150.065 161.912L141.808 153.656L140.035 151.884L138.263 153.656L122.768 169.151C106.611 185.309 81.7654 189.161 61.5635 178.523L60.3956 180.741L61.5634 178.523C42.9901 168.744 29.4835 168.304 21.6128 168.425C20.8068 168.437 20.0308 168.122 19.4631 167.552L19.4628 167.552M146.414 26.8716L19.4628 167.552M47.0632 58.91L48.8356 60.6824L57.092 68.9389C57.8676 69.7144 59.0058 69.9996 60.0545 69.6819L60.0552 69.6817C61.0752 69.3731 61.85 68.5417 62.089 67.5075L66.2035 31.4894L66.2155 31.3849L66.2361 31.2817C66.4312 30.3078 66.1262 29.3007 65.4238 28.5987L65.4228 28.5977C64.7209 27.8954 63.7138 27.5904 62.7399 27.7854L62.6367 27.8061L62.5322 27.818L26.5141 31.9333C25.4808 32.1721 24.6495 32.9462 24.3399 33.967L47.0632 58.91ZM35.1124 46.9591L33.3399 48.7316L17.8446 64.2273L16.0721 62.4549L17.8446 64.2274C1.68434 80.3876 -2.1576 105.236 8.4797 125.447C18.2522 144.012 18.7319 157.575 18.5952 165.397L35.1124 46.9591ZM35.1124 46.9591L33.3398 45.1866M35.1124 46.9591L33.3398 45.1866M33.3398 45.1866L25.0832 36.9307C25.0832 36.9307 25.0831 36.9307 25.0831 36.9306M33.3398 45.1866L25.0831 36.9306M19.4628 167.552C18.8942 166.982 18.5814 166.206 18.5952 165.398L19.4628 167.552ZM25.0831 36.9306C25.083 36.9305 25.0828 36.9303 25.0826 36.9302M25.0831 36.9306L25.0826 36.9302M25.0826 36.9302C24.308 36.1547 24.0226 35.0168 24.3396 33.9679L25.0826 36.9302ZM159.439 16.2683C156.32 19.3864 156.32 24.4435 159.439 27.5613C162.557 30.6793 167.612 30.6793 170.731 27.5613C173.85 24.4433 173.849 19.3866 170.731 16.2684C167.613 13.1499 162.557 13.1499 159.439 16.2683Z" stroke="#61B766" stroke-width="5.01333"/>
        <mask id="mask0_391_2652" style="mask-type:alpha" maskUnits="userSpaceOnUse" x="0" y="127" width="188" height="61">
            <path d="M0 127.84H15.3367H38.8533H60.3147H82.72H101.495H129.093H155.668H188V188H0V127.84Z" fill="#D9D9D9"/>
        </mask>
        <g mask="url(#mask0_391_2652)">
            <path opacity="0.6" d="M180.58 6.41756C172.023 -2.13984 158.147 -2.13984 149.589 6.41756C143.868 12.1389 142.063 20.2153 143.991 27.5115L116.793 54.7056L105.171 43.0847C103.031 40.9452 99.5627 40.9448 97.4232 43.0847L89.6748 50.8324C87.5352 52.9719 87.5352 56.4405 89.6748 58.58L101.296 70.2017L38.9933 132.506L35.2029 127.444C22.1466 110.009 23.888 85.6291 39.2902 70.2269L47.0631 62.4544L55.3196 70.7109C56.7487 72.14 58.8473 72.6663 60.7812 72.0805C62.7148 71.4954 64.1699 69.8924 64.5658 67.9113L68.694 31.7734C69.0537 29.9772 68.4913 28.12 67.1958 26.8253C65.9011 25.5298 64.0439 24.9673 62.2477 25.3271L26.1097 29.456C24.1287 29.852 22.5265 31.307 21.9406 33.2406C21.3555 35.1745 21.8818 37.2731 23.3102 38.7023L31.5674 46.9587L16.0721 62.4544C-0.859365 79.3858 -4.8908 105.425 6.26157 126.614C15.7813 144.699 16.2207 157.813 16.0889 165.353C16.0633 166.838 16.6385 168.269 17.6879 169.321C18.7357 170.373 20.1663 170.953 21.651 170.931C29.2507 170.814 42.3063 171.216 60.3956 180.741C81.5772 191.894 107.613 187.851 124.54 170.923L140.036 155.428L148.293 163.684C149.721 165.113 151.82 165.64 153.754 165.054C155.688 164.469 157.143 162.866 157.539 160.885L161.667 124.746C162.027 122.951 161.464 121.094 160.169 119.798C158.874 118.503 157.017 117.941 155.221 118.3L119.082 122.429C117.101 122.825 115.499 124.28 114.913 126.213C114.328 128.147 114.854 130.246 116.283 131.674L124.54 139.932L116.767 147.704C101.365 163.106 76.9844 164.848 59.5504 151.791L54.4887 148.001L116.793 85.6971L128.414 97.3188C130.553 99.4583 134.022 99.4583 136.162 97.3188L143.91 89.5711C146.049 87.4312 146.049 83.9629 143.91 81.8234L132.288 70.2017L159.486 43.0076C166.782 44.935 174.859 43.13 180.58 37.4086C189.138 28.8516 189.138 14.9757 180.58 6.41756ZM168.959 25.788C166.819 27.9275 163.351 27.9275 161.211 25.788C159.071 23.6492 159.071 20.1795 161.211 18.0403C163.351 15.9008 166.819 15.9008 168.959 18.0403C171.098 20.1799 171.098 23.6492 168.959 25.788Z" fill="#61B766"/>
        </g>
    </g>
    <defs>
        <clipPath id="clip0_391_2652">
            <rect width="187" height="187" fill="white"/>
        </clipPath>
    </defs>
</svg>
